HIERARCHY
ROOT Hips
{
	OFFSET 0.000000 0.000000 0.000000
	CHANNELS 6 Xposition Yposition Zposition Zrotation Yrotation Xrotation 
	JOINT LeftUpLeg_virtual
	{
		OFFSET 0.000000 0.000000 0.000000
		CHANNELS 3 Zrotation Yrotation Xrotation
		JOINT LeftUpLeg
		{
			OFFSET 10.205400 -3.823500 0.155100
			CHANNELS 3 Zrotation Yrotation Xrotation
			JOINT LeftLeg
			{
				OFFSET 0.708757 -12.982077 0.567790
				CHANNELS 3 Zrotation Yrotation Xrotation
				JOINT LeftFoot
				{
					OFFSET -0.708756 -10.717838 -2.184338
					CHANNELS 3 Zrotation Yrotation Xrotation
					JOINT LeftToeBase
					{
						OFFSET 0.108149 -7.191104 7.560241
						CHANNELS 3 Zrotation Yrotation Xrotation
						End Site
						{
							OFFSET 0.000000 0.000000 0.000000
						}
					}
				}
			}
		}
	}
	JOINT RightUpLeg_virtual
	{
		OFFSET 0.000000 0.000000 0.000000
		CHANNELS 3 Zrotation Yrotation Xrotation
		JOINT RightUpLeg
		{
			OFFSET -10.205400 -3.823500 0.005500
			CHANNELS 3 Zrotation Yrotation Xrotation
			JOINT RightLeg
			{
				OFFSET -0.708756 -12.982134 0.610632
				CHANNELS 3 Zrotation Yrotation Xrotation
				JOINT RightFoot
				{
					OFFSET 0.708754 -10.717769 -1.945823
					CHANNELS 3 Zrotation Yrotation Xrotation
					JOINT RightToeBase
					{
						OFFSET -0.108140 -7.191069 7.372968
						CHANNELS 3 Zrotation Yrotation Xrotation
						End Site
						{
							OFFSET 0.000000 0.000000 0.000000
						}
					}
				}
			}
		}
	}
	JOINT Spine_virtual
	{
		OFFSET 0.000000 0.000000 0.000000
		CHANNELS 3 Zrotation Yrotation Xrotation
		JOINT Spine
		{
			OFFSET 0.000000 6.876099 0.125700
			CHANNELS 3 Zrotation Yrotation Xrotation
			JOINT Spine1
			{
				OFFSET 0.000000 8.022060 0.146608
				CHANNELS 3 Zrotation Yrotation Xrotation
				JOINT Spine2
				{
					OFFSET 0.000000 9.168068 0.167552
					CHANNELS 3 Zrotation Yrotation Xrotation
					JOINT Neck_virtual
					{
						OFFSET 0.000000 0.000000 0.000000
						CHANNELS 3 Zrotation Yrotation Xrotation
						JOINT Neck
						{
							OFFSET 0.000000 10.314075 0.188496
							CHANNELS 3 Zrotation Yrotation Xrotation
							JOINT Head
							{
								OFFSET 0.000000 7.643700 -2.377400
								CHANNELS 3 Zrotation Yrotation Xrotation
								End Site
								{
									OFFSET 0.000000 0.000000 0.000000
								}
							}
						}
					}
					JOINT LeftShoulder_virtual
					{
						OFFSET 0.000000 0.000000 0.000000
						CHANNELS 3 Zrotation Yrotation Xrotation
						JOINT LeftShoulder
						{
							OFFSET 4.392200 8.824978 0.174984
							CHANNELS 3 Zrotation Yrotation Xrotation
							JOINT LeftArm
							{
								OFFSET 8.771219 -2.981674 -0.026999
								CHANNELS 3 Zrotation Yrotation Xrotation
								JOINT LeftForeArm
								{
									OFFSET 8.512804 0.000000 -0.000000
									CHANNELS 3 Zrotation Yrotation Xrotation
									JOINT LeftHand
									{
										OFFSET 18.484802 0.000000 -0.000000
										CHANNELS 3 Zrotation Yrotation Xrotation
										End Site
										{
											OFFSET 0.000000 0.000000 0.000000
										}
									}
								}
							}
						}
					}
					JOINT RightShoulder_virtual
					{
						OFFSET 0.000000 0.000000 0.000000
						CHANNELS 3 Zrotation Yrotation Xrotation
						JOINT RightShoulder
						{
							OFFSET -4.392200 8.824993 0.141379
							CHANNELS 3 Zrotation Yrotation Xrotation
							JOINT RightArm
							{
								OFFSET -8.771282 -2.981682 -0.094208
								CHANNELS 3 Zrotation Yrotation Xrotation
								JOINT RightForeArm
								{
									OFFSET -8.494598 0.000000 0.000000
									CHANNELS 3 Zrotation Yrotation Xrotation
									JOINT RightHand
									{
										OFFSET -18.483803 0.000000 0.000001
										CHANNELS 3 Zrotation Yrotation Xrotation
										End Site
										{
											OFFSET 0.000000 0.000000 0.000000
										}
									}
								}
							}
						}
					}
				}
			}
		}
	}
}
MOTION
Frames: 11
Frame Time: 0.033333
-6.698805 36.347996 -36.952793 179.564471 -51.935341 -179.684054 -3.549844 -5.065611 16.074338 -7.100786 7.706292 -38.990162 7.815114 9.594111 34.459308 -10.159246 -0.694010 16.475267 0.000000 0.000000 0.000000 2.575133 -5.104780 14.676849 8.881049 -20.016520 -27.344879 -1.720216 -0.731861 39.373295 7.840761 4.995003 20.630494 0.000000 0.000000 0.000000 0.911582 -3.001240 9.002889 4.106568 8.317156 -4.994201 -0.110174 -4.621150 11.269321 0.056664 -0.141251 -0.006299 0.373701 -3.981868 10.744942 4.701201 -8.265781 0.191533 0.000000 0.000000 0.000000 1.974631 -3.216985 7.237913 -1.677059 -8.400482 6.420450 -50.740352 -0.700170 41.445021 -166.706176 -82.542515 -172.679026 0.000000 0.000000 0.000000 -2.249223 -1.919620 6.508445 26.054525 16.292858 6.482336 47.750949 12.039102 -18.390310 -9.978554 39.126524 -9.156541 0.000000 0.000000 0.000000 
-6.757418 36.100441 -36.183350 179.634194 -49.727182 -179.579771 -3.156572 -4.817081 15.857831 -9.179747 8.951313 -40.356753 7.829776 10.215194 36.045169 -9.163543 -0.507875 15.902851 0.000000 0.000000 0.000000 3.367927 -4.957454 14.510850 8.788242 -19.527738 -25.836437 -2.368992 -1.347502 37.823812 6.861774 4.350707 18.491889 0.000000 0.000000 0.000000 1.514273 -3.130105 8.523238 5.507122 8.543931 -4.839440 -0.161526 -4.831849 11.273090 0.048843 -0.049027 0.015082 0.320341 -4.024325 10.834054 5.043854 -8.626292 0.183543 0.000000 0.000000 0.000000 1.871579 -3.239023 7.345180 -2.073803 -7.806560 6.601854 -50.280697 0.223010 40.602992 -163.082774 -82.677876 -176.578067 0.000000 0.000000 0.000000 -2.301187 -1.964092 6.602708 26.015962 16.471674 6.590283 46.544905 15.241714 -18.538209 -9.651389 38.053070 -9.272264 0.000000 0.000000 0.000000 
-6.808198 35.840084 -35.251884 179.458385 -47.400430 -179.337354 -2.802597 -4.704459 15.713648 -10.534671 9.484000 -41.795430 7.434944 10.040758 37.137494 -9.760411 -1.265675 16.361416 0.000000 0.000000 0.000000 4.184831 -4.664231 14.487151 8.166250 -18.822155 -24.992253 -2.985643 -1.297527 36.620011 5.817646 3.609330 14.437457 0.000000 0.000000 0.000000 1.981010 -2.936293 8.298879 7.022608 8.611117 -4.580175 -0.169670 -4.996554 11.290628 0.016581 -0.032284 0.029222 0.337881 -4.376663 10.901545 5.519057 -8.952544 0.285780 0.000000 0.000000 0.000000 1.814793 -3.469929 7.362136 -2.358818 -7.248946 6.932222 -49.768949 0.933288 39.625062 -158.994591 -82.886436 178.837766 0.000000 0.000000 0.000000 -2.313270 -2.184345 6.674254 26.322801 16.585697 6.644916 45.444807 18.651040 -18.144201 -9.103332 37.074608 -9.225373 0.000000 0.000000 0.000000 
-6.873155 35.635406 -34.214981 179.768953 -44.898914 -179.594046 -1.984751 -4.477551 15.278913 -11.310613 9.568330 -43.080633 7.103864 9.444874 38.688094 -10.703055 -2.072058 16.389891 0.000000 0.000000 0.000000 4.946342 -4.212203 14.423090 7.209902 -17.505809 -24.634655 -3.467073 -0.686621 36.372308 5.119262 3.201573 8.109278 0.000000 0.000000 0.000000 2.664279 -2.857037 8.375436 8.656097 8.584995 -4.216608 -0.227070 -5.217384 11.263156 0.042945 -0.030509 0.032521 0.261106 -4.392989 10.948143 5.946095 -9.323440 0.404184 0.000000 0.000000 0.000000 1.701715 -3.639370 7.433241 -2.407715 -6.777582 7.000493 -49.195664 1.302973 39.003058 -154.286542 -83.195078 173.369175 0.000000 0.000000 0.000000 -2.393903 -2.370843 6.693768 26.888512 16.638418 6.582531 44.649541 21.883690 -17.013552 -8.573629 36.439011 -9.118932 0.000000 0.000000 0.000000 
-6.981967 35.523117 -33.178493 179.897224 -42.107064 -179.529227 -1.246211 -4.528867 15.028913 -11.047038 9.245070 -44.480538 6.965029 7.918492 40.997944 -12.298357 -3.284321 15.900312 0.000000 0.000000 0.000000 5.252817 -3.936139 14.008049 5.715559 -14.349148 -24.841941 -3.951826 -0.670199 35.943638 4.888512 2.605279 4.928046 0.000000 0.000000 0.000000 3.120227 -2.764053 8.341696 10.086375 8.485626 -3.946876 -0.195057 -5.386555 11.219610 0.018503 0.014337 0.071010 0.233427 -4.731407 11.005065 6.516063 -9.548526 0.594907 0.000000 0.000000 0.000000 1.655810 -3.951547 7.496586 -2.307540 -6.491202 7.168560 -48.698583 1.045271 38.698745 -148.914831 -83.773575 167.019750 0.000000 0.000000 0.000000 -2.410632 -2.586661 6.760218 27.540001 16.600759 6.532389 43.956249 24.952004 -15.585686 -8.043344 36.115793 -9.005536 0.000000 0.000000 0.000000 
-7.164450 35.516727 -32.213428 179.880203 -38.965003 -179.503983 -0.472339 -4.551349 14.758007 -9.601802 8.362782 -45.069963 6.977429 5.281477 44.503211 -13.767639 -4.502726 14.390365 0.000000 0.000000 0.000000 5.384863 -3.674996 13.433248 3.858024 -10.786901 -25.271147 -4.439748 -0.632438 35.446708 4.952446 2.071962 3.918021 0.000000 0.000000 0.000000 3.447746 -2.529982 8.068047 11.195560 8.183307 -3.530817 -0.172706 -5.594011 11.239064 0.027169 -0.005503 0.037171 0.282301 -4.752090 10.983149 6.935426 -9.736093 0.934350 0.000000 0.000000 0.000000 1.739179 -4.136771 7.380613 -2.051250 -6.408855 7.230830 -48.366164 0.103336 38.745880 -140.366316 -84.318487 157.240681 0.000000 0.000000 0.000000 -2.311980 -2.761199 6.680168 28.181909 16.586624 6.393087 43.635883 27.380130 -14.030149 -7.329879 36.242490 -8.665685 0.000000 0.000000 0.000000 
-7.413072 35.604282 -31.308352 179.876829 -35.872860 -179.682920 0.185967 -4.576450 14.425295 -7.158004 7.427657 -44.641874 7.586099 3.769702 49.042674 -13.193196 -4.188683 13.092349 0.000000 0.000000 0.000000 5.467620 -3.685322 12.797742 1.610947 -7.140059 -26.065658 -4.583501 -0.087877 34.944382 5.629613 1.692923 4.651339 0.000000 0.000000 0.000000 3.646622 -2.380870 7.858939 11.929219 7.584004 -3.299085 -0.133355 -5.668264 11.266228 0.005695 0.088114 0.031586 0.377413 -5.143206 10.862120 7.316279 -9.775034 1.307156 0.000000 0.000000 0.000000 1.861982 -4.371731 7.287758 -1.755449 -6.623682 7.278596 -48.133600 -1.429664 39.223946 -130.230138 -85.008876 145.681446 0.000000 0.000000 0.000000 -2.155873 -3.063117 6.512111 28.671287 16.439763 6.093863 43.664774 29.374386 -12.365355 -6.713638 36.491235 -8.264086 0.000000 0.000000 0.000000 
-7.728831 35.762470 -30.396881 179.875750 -32.521918 -179.788761 0.526407 -4.118193 14.113522 -4.568053 7.097498 -43.212893 8.427852 2.963921 52.831793 -11.548476 -2.854127 13.153723 0.000000 0.000000 0.000000 5.691238 -3.188962 12.285348 -0.991029 -3.664081 -26.960925 -4.499649 0.695866 33.819692 6.689478 1.275610 6.369308 0.000000 0.000000 0.000000 3.762061 -1.710644 7.502367 12.303720 6.966447 -3.203311 -0.054736 -5.887084 11.202485 0.010019 0.026425 0.005291 0.507061 -5.245213 10.758085 7.523970 -9.711277 1.738917 0.000000 0.000000 0.000000 1.999438 -4.550832 7.159425 -1.454227 -6.994412 7.073640 -48.108697 -3.333862 39.821953 -114.307512 -85.648906 128.172147 0.000000 0.000000 0.000000 -2.034987 -3.272373 6.419378 29.106407 16.379108 5.754480 44.139353 31.027616 -10.442670 -6.105519 36.848912 -7.806942 0.000000 0.000000 0.000000 
-8.073961 35.940422 -29.459858 179.913630 -28.969035 -179.874493 0.734869 -3.396501 13.916998 -1.455952 6.836818 -40.502506 8.488055 1.931979 54.905739 -11.106942 -2.356881 13.352274 0.000000 0.000000 0.000000 5.924070 -2.402070 12.065746 -3.678059 -0.375542 -28.075129 -4.400660 1.496542 31.929410 8.114400 0.890691 8.868208 0.000000 0.000000 0.000000 3.731456 -0.904532 7.079322 12.396713 6.101257 -3.266458 0.040274 -6.010349 11.207635 -0.005803 0.007193 0.018108 0.582982 -5.315475 10.603398 7.592805 -9.467269 2.224304 0.000000 0.000000 0.000000 2.092380 -4.632570 6.967867 -1.256745 -7.455390 6.924021 -48.080355 -5.297766 40.281399 -90.663699 -86.055186 102.855416 0.000000 0.000000 0.000000 -1.923064 -3.373148 6.310128 29.438996 16.447090 5.436598 45.239659 32.380680 -7.981910 -5.587494 37.516600 -7.284821 0.000000 0.000000 0.000000 
-8.412980 36.060925 -28.512762 179.964898 -25.429633 -179.951033 0.751559 -2.480827 13.786251 1.722485 6.401491 -36.839079 8.121864 0.951618 55.855962 -10.848829 -1.967015 13.619582 0.000000 0.000000 0.000000 6.029887 -1.340150 12.077576 -6.121857 2.544608 -29.427348 -4.631322 2.180575 29.530883 9.918172 0.614221 11.879843 0.000000 0.000000 0.000000 3.667987 0.090837 6.714022 12.139902 5.121807 -3.467337 0.130746 -6.071832 11.181248 -0.011762 0.025534 0.014480 0.637188 -5.325799 10.445864 7.426643 -9.122151 2.675020 0.000000 0.000000 0.000000 2.107386 -4.707742 6.776904 -1.260920 -8.029366 6.527460 -48.054431 -7.044014 40.596541 -61.684231 -85.577872 72.217865 0.000000 0.000000 0.000000 -1.877299 -3.485691 6.133431 29.622172 16.521951 5.029940 46.829280 33.430504 -4.745478 -5.358016 38.701413 -6.888626 0.000000 0.000000 0.000000 
-8.754239 36.074646 -27.587757 179.999978 -21.661238 -179.876747 0.542657 -1.417806 13.667015 4.565399 5.685065 -32.801068 7.434351 0.196095 56.064816 -10.849710 -1.731750 13.733819 0.000000 0.000000 0.000000 5.771384 -0.119723 12.157131 -8.444397 5.722000 -30.878476 -5.058614 2.310319 26.509270 11.802028 0.237865 15.525438 0.000000 0.000000 0.000000 3.458426 1.118270 6.297108 11.614720 4.104396 -3.752430 0.186370 -6.105272 11.145673 -0.039762 0.015899 0.030379 0.679708 -5.389091 10.392932 7.185774 -8.550982 3.087430 0.000000 0.000000 0.000000 2.159989 -4.723954 6.682810 -1.500076 -8.686419 6.290203 -47.874025 -8.568017 40.810776 -39.927360 -84.205967 48.852983 0.000000 0.000000 0.000000 -1.813405 -3.482792 6.086256 29.672374 16.612164 4.783260 48.739523 34.027115 -1.513596 -5.125793 40.382623 -6.361813 0.000000 0.000000 0.000000 
